<svg xmlns="http://www.w3.org/2000/svg" xmlns:xlink="http://www.w3.org/1999/xlink" viewBox="0 0 4119.32 1279.73"><defs><style>.cls-1{fill:#4ddce8;}.cls-2{clip-path:url(#clip-path);}.cls-3{fill:#2ab2d8;}.cls-4{fill:none;}.cls-5{clip-path:url(#clip-path-2);}</style><clipPath id="clip-path" transform="translate(5.31)"><path class="cls-1" d="M4107.51,1001.75c11.16,13-58,114.39-153.86,180.42-214,147.38-506.1,80.75-565.57,67.18-127.56-29.1-155.77-64.89-299.67-83.18A1015.84,1015.84,0,0,0,2821,1168a1145.11,1145.11,0,0,1,241.69-58.8c35.57-4.64,92.75-10.37,235.53-7.27,248.24,5.39,240,26.32,374.6,18.88,85.69-4.74,194.48-11.69,320-64.78C4057.47,1028.7,4099.93,992.91,4107.51,1001.75Z"/></clipPath><clipPath id="clip-path-2" transform="translate(5.31)"><path class="cls-1" d="M1.18,1005.37c-11.16,13,58,114.38,153.86,180.42,214,147.38,506.11,80.74,565.58,67.17,127.55-29.09,155.77-64.88,299.66-83.18a1016.79,1016.79,0,0,1,267.41,1.85,1146.63,1146.63,0,0,0-241.7-58.8c-35.57-4.63-92.75-10.37-235.53-7.27-248.24,5.4-240,26.32-374.59,18.88-85.7-4.73-194.49-11.69-320-64.77C51.22,1032.31,8.76,996.53,1.18,1005.37Z"/></clipPath></defs><g id="Layer_2" data-name="Layer 2"><g id="Calque_1" data-name="Calque 1"><path d="M1102.65,321c-.19,1,31.5-3.37,91.32-1.52l260,2c17.23.14,31.12,13.51,31.12,30V749.74c0,16.64-14.2,30.09-31.62,30l-82.38-.6c-17.19-.12-31.07-13.42-31.14-29.83l-1.1-257.86c-.07-16.53-14.14-29.87-31.45-29.84l-215.16-3.12c-9.43-5.55-7.74-36.09-3.28-67C1094,356.33,1102.7,320.74,1102.65,321Z" transform="translate(5.31)"/><path d="M1304.66,458.55c.19-1-31.5,3.39-91.31,1.59l-260-1.88c-17.23-.12-31.13-13.48-31.14-29.93l-.28-398.27c0-16.63,14.17-30.09,31.59-30l82.39.55c17.18.11,31.08,13.4,31.16,29.81l1.28,257.86c.08,16.53,14.16,29.86,31.47,29.82l215.16,3c9.44,5.54,7.77,36.08,3.34,67C1313.25,423.22,1304.61,458.82,1304.66,458.55Z" transform="translate(5.31)"/><path d="M1369.25,458.23c-17.22-.13-31.12-13.49-31.14-29.94L1337.83,30c0-16.64,14.17-30.1,31.59-30l82.39.54C1469,.71,1482.89,14,1483,30.41l1.28,257.86c1.51,63.28.71,92.29.71,155.67C1485,481.15,1410.42,473.94,1369.25,458.23Z" transform="translate(5.31)"/><path d="M2755.39,321c-.19,1,31.5-3.37,91.31-1.52l260,2c17.22.14,31.11,13.51,31.11,30V749.7c0,16.63-14.19,30.08-31.61,29.95l-82.39-.6c-17.18-.12-31.06-13.42-31.13-29.83l-1.1-257.86c-.07-16.52-14.14-29.87-31.45-29.84L2745,458.4c-9.43-5.55-7.75-36.08-3.29-67C2746.78,356.29,2755.44,320.69,2755.39,321Z" transform="translate(5.31)"/><path d="M2957.4,458.5c.18-1-31.5,3.4-91.32,1.59l-260-1.88c-17.23-.12-31.13-13.48-31.14-29.93L2574.65,30c0-16.63,14.17-30.09,31.59-30l82.38.54c17.19.11,31.08,13.41,31.16,29.82l1.29,257.86c.08,16.52,14.16,29.86,31.46,29.81l215.17,3c9.43,5.54,7.77,36.08,3.33,67C2966,423.17,2957.35,458.77,2957.4,458.5Z" transform="translate(5.31)"/><path d="M3022,458.18c-17.23-.13-31.13-13.49-31.14-29.94L2990.57,30c0-16.64,14.17-30.09,31.59-30l82.39.55c17.18.11,31.07,13.4,31.16,29.81L3137,288.22c1.51,63.28.71,92.3.71,155.68C3137.7,481.11,3063.16,473.89,3022,458.18Z" transform="translate(5.31)"/><path class="cls-1" d="M4107.51,1001.75c11.16,13-58,114.39-153.86,180.42-214,147.38-506.1,80.75-565.57,67.18-127.56-29.1-155.77-64.89-299.67-83.18A1015.84,1015.84,0,0,0,2821,1168a1145.11,1145.11,0,0,1,241.69-58.8c35.57-4.64,92.75-10.37,235.53-7.27,248.24,5.39,240,26.32,374.6,18.88,85.69-4.74,194.48-11.69,320-64.78C4057.47,1028.7,4099.93,992.91,4107.51,1001.75Z" transform="translate(5.31)"/><g class="cls-2"><path class="cls-3" d="M3197.39,1136.23c-89.24.22-123.86-7.2-207.69.46a1014.86,1014.86,0,0,0-164.2,28.77c16.45-6,38.39-13.48,64.53-21.22a1142.84,1142.84,0,0,1,177.17-37.58c35.56-4.64,92.75-10.37,235.52-7.27,81,1.76,171.51,1.95,171.78,8.44C3474.82,1115.7,3342.38,1135.86,3197.39,1136.23Z" transform="translate(5.31)"/><path class="cls-3" d="M4112.7,1000.42c11.8,13.74-57.93,114.13-153.86,180.42-175.44,121.24-395,98.35-397.86,81.22-2.45-14.52,151.73-17.85,303.06-123.44,13-9.11,60.51-43,128.77-82.57C4057.49,1018.56,4104.75,991.17,4112.7,1000.42Z" transform="translate(5.31)"/></g><path d="M2823.38,1174.21C2869.77,1126.83,2972.22,1035,3132.7,986a733.85,733.85,0,0,1,335.83-21.43,472.82,472.82,0,0,0-134.29,24.71c-89.82,30.65-141,75.44-183.13,103.82C3089.21,1134.85,2988.85,1177.8,2823.38,1174.21Z" transform="translate(5.31)"/><path class="cls-3" d="M3064.83,940c-.3-.63-11.92,5.16-28.41,10.71a270.06,270.06,0,0,1-60.35,12.62c-48.24,5.15-79.84-3.24-169-7a278.88,278.88,0,0,0-76.72,6.36c-14.93,3.44-32.27,7.58-50.25,19.06-16.76,10.7-25.9,22.62-34.41,33.56-12.71,16.34-19.06,24.51-19.45,33.72s2.85,35.43,1.72,40.7c-1.23,5.73-2.28,5-5.64,13.9-12.2,32.36-3.61,45.65-16.05,53.55-7.68,4.88-21.67,6.13-26.51,11.23a17.35,17.35,0,0,0-3.66,5.47c-.52,1.5-.3,1.9-1.1,4.72s-1.23,3.23-.88,3.78c1.29,2,10.15.09,10.77,0,17.72-3.91,35.66,1,69.63-6.6,11.13-2.5,46.07-10.36,75.65-27.27,13.39-7.67,22.15-15.16,28.59-22.77,28-33.07,36.84-53.77,51.17-73.53,29-39.94,64.92-23.27,178.21-71.55C3029.83,962.85,3065.38,941.12,3064.83,940Z" transform="translate(5.31)"/><path class="cls-1" d="M2942.61,990.26c13.86-4.41,29.52-8.52,52-19a315.59,315.59,0,0,0,34.92-19.12,356.89,356.89,0,0,1-50.31,13c-14.66,2.67-25.73,3.75-31.74,4.34-38,3.73-82.74,7.77-91.82,9.52-42.12,8.13-137.49,35.92-147.42,79-5.09,22.06,14.38,37.48-1.18,61.56-5.58,8.64-12.91,14.64-23.07,22.12-9.62,7.08-27,19.65-53.17,28.23a249.89,249.89,0,0,1-34,8.55c-14,2.47-21.23,2.63-21.25,3.12,0,1.22,45.29,4.94,98.2-6.09,36.79-7.67,59.06-18.69,67.51-23.15,10.78-5.69,17.05-9,24-15.3,18.12-16.42,14.5-30.44,29.26-51.9,6.44-9.36,15.5-19.77,29.51-31.73C2868.09,1015.72,2918.53,997.93,2942.61,990.26Z" transform="translate(5.31)"/><path d="M2769.65,989c-34,12.09-86.15,30.6-95.25,62.39-6.67,23.34,14.8,34,3.94,60.07-8.51,20.46-31.21,33.36-46.87,42.25a187.19,187.19,0,0,1-55.45,20.42,325.75,325.75,0,0,1,23.6-94.8c6-14.29,14.72-35.19,32.35-58.84,24.26-32.53,52.63-53.38,74.38-61.12a135.94,135.94,0,0,1,18.73-5.13c4.45-.81,10.92-1.72,33.94-2,6-.08,14-.13,18-.07,30.71.46,213.63,13.5,258.31-2.4,9.61-3.42,15.68-5.94,15.68-5.94,20.68-8.62,32.08-16.51,33.16-15,.81,1.12-4.65,6.67-9.38,10.58-10.25,8.47-20.77,11.8-29.18,14.77-17.63,6.21-32.21,7.62-42.56,8.55-28.13,2.53-42.2,3.8-66.69,2.94C2887.56,963.94,2822.77,970.16,2769.65,989Z" transform="translate(5.31)"/><path d="M3099.46,915.88c-.51-.62-9.63,6.92-24.12,15.47-15.62,9.21-28.39,14.24-39,18.35-39.37,15.3-75,20.55-89.58,22.61-15.83,2.24-34.35,4.76-63,10.84a253.51,253.51,0,0,0-24.76,6.74c-34.26,11-104.3,33.33-119.86,75.71-7.93,21.62,7.28,24.09-1.91,44.16-17.7,38.64-88.23,60.91-130.5,67.88-19.17,3.17-32.53,4-32.53,5,0,1.92,43.67,4,91.52-4,26.5-4.45,64.3-10.8,102.23-33.68,23.89-14.42,39.45-30.34,53.39-44.59,4-4.1,7.33-7.78,9.86-10.68s4.36-5.12,4.95-5.83l.18-.22c1.87-2.32,35.56-38.33,52.59-52,41.62-33.41,98.73-25.62,165.83-75C3078.58,939.12,3100.28,916.88,3099.46,915.88Z" transform="translate(5.31)"/><path class="cls-4" d="M3647.1,1178.71l-14.07,32.9" transform="translate(5.31)"/><path d="M1743.58,637.71c-138-161-118.29-403.9,44.81-540.9,137.12-115.66,333.38-119.22,474.08-19.58l2.68,1.78,1.8,1.78c7.17,8,6.27,19.57-.9,25.8l-84.24,70.28c-5.38,4.45-12.55,5.34-19.72,1.78-86.92-50.71-201.63-43.59-283.19,24.91-103.05,87.19-115.6,241.1-27.78,344.3,81.56,95.19,222.25,113,324.42,44.48a.87.87,0,0,0,.89-.89c7.17-4.45,17.93-2.67,23.3,4.45L2267,675.08a17.11,17.11,0,0,1-.9,24.91c-.9,0-.9,0-.9.89h-.89v.89A420.28,420.28,0,0,1,2197.05,740C2043.8,807.63,1857.4,771.16,1743.58,637.71Z" transform="translate(5.31)"/><path d="M2331.84,638c138-161,118.3-403.9-44.8-540.91C2149.92-18.53,1953.66-22.09,1813,77.55l-2.69,1.78-1.79,1.78c-7.17,8-6.27,19.57.9,25.8l84.24,70.28c5.37,4.45,12.54,5.34,19.71,1.78,86.93-50.71,201.64-43.59,283.19,24.91,103.06,87.18,115.61,241.09,27.78,344.29-81.55,95.19-222.25,113-324.41,44.49a.88.88,0,0,1-.9-.89c-7.17-4.45-17.92-2.67-23.3,4.44l-67.21,79.18a17.11,17.11,0,0,0,.9,24.91c.89,0,.89,0,.89.89h.9v.89a420.34,420.34,0,0,0,67.21,38.26C2031.63,808,2218,771.47,2331.84,638Z" transform="translate(5.31)"/><path class="cls-1" d="M1.18,1005.37c-11.16,13,58,114.38,153.86,180.42,214,147.38,506.11,80.74,565.58,67.17,127.55-29.09,155.77-64.88,299.66-83.18a1016.79,1016.79,0,0,1,267.41,1.85,1146.63,1146.63,0,0,0-241.7-58.8c-35.57-4.63-92.75-10.37-235.53-7.27-248.24,5.4-240,26.32-374.59,18.88-85.7-4.73-194.49-11.69-320-64.77C51.22,1032.31,8.76,996.53,1.18,1005.37Z" transform="translate(5.31)"/><g class="cls-5"><path class="cls-3" d="M911.31,1139.84c89.23.23,123.86-7.2,207.69.47a1014,1014,0,0,1,164.19,28.76c-16.44-6-38.38-13.47-64.52-21.22a1145.44,1145.44,0,0,0-177.17-37.58c-35.57-4.63-92.75-10.37-235.53-7.27-81,1.77-171.5,2-171.77,8.44C633.87,1119.32,766.32,1139.48,911.31,1139.84Z" transform="translate(5.31)"/><path class="cls-3" d="M-4,1004c-11.8,13.74,57.93,114.13,153.86,180.42,175.45,121.24,395,98.35,397.86,81.21,2.46-14.51-151.72-17.85-303.05-123.44-13-9.1-60.52-43-128.78-82.56C51.2,1022.17,3.94,994.78-4,1004Z" transform="translate(5.31)"/></g><path d="M1285.31,1177.82c-46.39-47.37-148.84-139.21-309.31-188.18a733.61,733.61,0,0,0-335.84-21.43,472.5,472.5,0,0,1,134.3,24.7c89.81,30.65,141,75.45,183.12,103.82C1019.49,1138.46,1119.85,1181.42,1285.31,1177.82Z" transform="translate(5.31)"/><path class="cls-3" d="M1043.86,943.6c.31-.63,11.92,5.17,28.41,10.71a270,270,0,0,0,60.36,12.62c48.24,5.15,79.84-3.24,169-7a278.59,278.59,0,0,1,76.72,6.37c14.93,3.43,32.27,7.57,50.25,19,16.76,10.71,25.91,22.63,34.41,33.56,12.71,16.34,19.06,24.52,19.46,33.73s-2.86,35.42-1.72,40.7c1.23,5.73,2.27,5,5.63,13.9,12.21,32.36,3.61,45.65,16,53.55,7.68,4.87,21.68,6.13,26.51,11.23a17.13,17.13,0,0,1,3.66,5.47c.53,1.49.31,1.9,1.1,4.72s1.23,3.22.88,3.78c-1.28,2-10.14.09-10.76,0-17.73-3.9-35.67,1-69.64-6.59-11.12-2.5-46.06-10.36-75.64-27.28-13.4-7.66-22.16-15.16-28.59-22.76-28-33.07-36.84-53.78-51.18-73.53-29-39.94-64.91-23.27-178.21-71.55C1078.86,966.47,1043.31,944.73,1043.86,943.6Z" transform="translate(5.31)"/><path class="cls-1" d="M1166.09,993.88c-13.87-4.42-29.53-8.53-52-19a317.28,317.28,0,0,1-34.92-19.12,357.49,357.49,0,0,0,50.31,13c14.66,2.68,25.74,3.76,31.74,4.35,38,3.72,82.74,7.76,91.83,9.52,42.11,8.13,137.48,35.92,147.41,79,5.09,22.05-14.37,37.47,1.19,61.55,5.58,8.64,12.91,14.64,23.07,22.13,9.62,7.08,27,19.64,53.16,28.22a247,247,0,0,0,34,8.55c14,2.47,21.23,2.64,21.24,3.12,0,1.22-45.29,4.95-98.19-6.09-36.8-7.67-59.07-18.69-67.52-23.15-10.78-5.69-17-9-24-15.29-18.12-16.42-14.5-30.45-29.26-51.91-6.44-9.36-15.5-19.77-29.51-31.72C1240.61,1019.34,1190.16,1001.55,1166.09,993.88Z" transform="translate(5.31)"/><path d="M1339,992.64c34,12.09,86.16,30.59,95.25,62.39,6.67,23.33-14.8,34-3.94,60.07,8.51,20.45,31.21,33.35,46.87,42.25a187.47,187.47,0,0,0,55.45,20.42,325.75,325.75,0,0,0-23.59-94.81c-6-14.28-14.73-35.19-32.35-58.83-24.27-32.54-52.63-53.39-74.39-61.13a134.59,134.59,0,0,0-18.73-5.12c-4.44-.82-10.91-1.72-33.94-2-6-.08-14-.13-18-.07-30.71.45-213.63,13.49-258.32-2.4-9.61-3.42-15.67-6-15.67-6-20.69-8.62-32.09-16.5-33.17-15-.8,1.11,4.65,6.67,9.39,10.58,10.24,8.46,20.76,11.8,29.17,14.76,17.64,6.22,32.22,7.62,42.57,8.55,28.13,2.54,42.19,3.8,66.69,2.94C1221.13,967.55,1285.93,973.77,1339,992.64Z" transform="translate(5.31)"/><path d="M1009.24,919.5c.5-.62,9.63,6.91,24.12,15.46,15.62,9.22,28.39,14.24,39,18.36,39.37,15.3,75,20.55,89.58,22.61,15.83,2.23,34.35,4.75,63,10.84a252.18,252.18,0,0,1,24.76,6.74c34.25,11,104.29,33.33,119.85,75.71,7.94,21.61-7.28,24.09,1.92,44.15,17.69,38.65,88.22,60.92,130.49,67.89,19.18,3.16,32.53,4,32.53,5,0,1.92-43.66,4-91.51-4-26.51-4.45-64.3-10.8-102.23-33.68-23.9-14.42-39.46-30.33-53.39-44.59-4-4.09-7.33-7.78-9.87-10.68s-4.36-5.11-4.94-5.83l-.18-.21c-1.88-2.33-35.56-38.34-52.6-52-41.61-33.42-98.72-25.62-165.82-75C1030.12,942.73,1008.41,920.5,1009.24,919.5Z" transform="translate(5.31)"/><path class="cls-4" d="M461.6,1182.33q7,16.44,14.06,32.89" transform="translate(5.31)"/></g></g></svg>