<svg xmlns="http://www.w3.org/2000/svg" viewBox="0 0 1842.46 1285.31"><defs><style>.cls-1{fill:#2ab2d8;}.cls-2{fill:#4ddce8;}</style></defs><g id="Layer_2" data-name="Layer 2"><g id="Calque_1" data-name="Calque 1"><path class="cls-1" d="M1624.89,295.84c9.07,75.07,68.63,82.74,105,172.76,9.3,8.15,50.77,44.08,57.82,37.79,6.77-6-21.48-47.93-29.05-59-51.72-61.07-113.53-84.7-121.13-162.47C1622.42,130.69,1843.9,2,1842.45.4S1606.1,140.23,1624.89,295.84Z"/><path class="cls-2" d="M1797.75,529.06C1850,665.2,1803.64,842.38,1697,960.46c-146.25,161.86-369.13,171.74-378.83,150.67-4.91-10.66,39.17-41.5,47.88-47.59,50.22-35.13,98.78-44,114.23-47.58,117.28-27.24,194.64-183.86,210-215,17.37-35.18,84.35-171,38.64-311.38-35.16-107.92-102.07-111.43-111.72-191.37-18.79-155.6,216-297,217.55-295.43s-220,130.28-205,284.52C1640,391.65,1747.68,398.54,1797.75,529.06Z"/><path class="cls-1" d="M1432.36,1060.34c-79.48,33.69-110.64,56.22-114.23,51.2-5.17-7.21,39.85-64.81,97.43-79.74,8.5-2.2,23.37-5,50.4-12.59,24.41-6.8,36.61-10.2,47.88-15.1,28.44-12.38,47.24-28.76,62.16-42,18.16-16.07,29.5-30,42-45.32,27.79-34.09,41-58.86,41.16-58.75.34.21-38.4,118.54-139.44,168.7C1495.68,1038.7,1491.7,1035.2,1432.36,1060.34Z"/><path d="M1203.77,1186.72a480.14,480.14,0,0,1,78.1-117.68c63.25-69.89,106.26-79.77,176.7-140,109.07-93.32,147.13-193.6,153.67-189.68,7.76,4.65-63.48,135.06-125,236.38-52.33,86.22-70.64,107.65-91,125.34C1323.39,1164.28,1242.52,1181.3,1203.77,1186.72Z"/><path class="cls-1" d="M1305.35,967.74c-.41-.43-8.26,7.12-20.09,15.7a226.67,226.67,0,0,1-45.21,25.25c-37.37,16.22-64.81,17.43-137.23,36.81a233.78,233.78,0,0,0-59.9,24.34c-11.11,6.49-24,14.16-35.5,27.87-10.74,12.78-15.08,24.61-19.15,35.51-6.09,16.27-9.13,24.41-7.13,31.89s11.18,27.66,11.59,32.17c.45,4.89-.57,4.56-1,12.54-1.66,29,8.57,37.47.58,46.92-4.93,5.83-15.83,10.35-18.43,15.64a14.57,14.57,0,0,0-1.56,5.3c0,1.33.23,1.6.3,4.06s-.17,2.89.25,3.25c1.54,1.32,8.15-2.47,8.61-2.74,13.23-7.57,28.86-8.11,54.17-22.75,8.29-4.79,34.32-19.85,53.79-40.82,8.81-9.5,13.95-17.7,17.2-25.4,14.12-33.51,16-52.32,22.56-71.73,13.2-39.26,46.2-34.93,124.89-102C1283,994.83,1306.07,968.5,1305.35,967.74Z"/><path class="cls-2" d="M1220,1038.67c10-7,21.53-14.24,36.88-28.28a266.25,266.25,0,0,0,23.19-24.07,299.6,299.6,0,0,1-37.06,23c-11.07,5.82-19.68,9.46-24.35,11.44-29.52,12.51-64.37,27-71.21,30.66-31.72,17.07-101.19,63.26-98.34,100.23,1.45,18.94,20.93,26.41,14.5,49.6-2.31,8.32-6.67,15-12.94,23.5-5.93,8.09-16.69,22.5-35.53,36A208.29,208.29,0,0,1,990,1276.13c-10.59,5.49-16.36,7.44-16.25,7.83.28,1,37.55-7.4,77.18-29.5,27.57-15.38,42.66-29.79,48.31-35.48,7.21-7.26,11.41-11.48,15.4-18.28,10.4-17.69,4-28,10.42-48.91,2.82-9.11,7.47-19.72,15.69-32.81C1166.65,1077.75,1202.62,1050.85,1220,1038.67Z"/><path d="M1081,1081.06c-24.25,18.22-61.38,46.11-60.68,73.86.51,20.36,20.39,23.5,18.24,47.12-1.69,18.53-16.65,34.55-27,45.6a157.37,157.37,0,0,1-39.32,30.27,273.15,273.15,0,0,1-4.89-81.85c1.2-13,3-31.89,11.16-55.24,11.28-32.15,28.79-56,44.28-67.62a114.63,114.63,0,0,1,13.73-8.81c3.36-1.76,8.32-4.11,26.7-10.13,4.76-1.56,11.21-3.63,14.43-4.58,24.73-7.34,174.63-42.78,206.46-66.72,6.84-5.15,11.07-8.7,11.07-8.7,14.42-12.09,21.57-21.26,22.82-20.33.92.69-2.06,6.51-4.87,10.83-6.09,9.35-13.68,14.65-19.68,19.14-12.57,9.4-23.91,14.18-32,17.53-21.91,9.08-32.87,13.62-52.72,19.08C1169.26,1031.39,1118.89,1052.62,1081,1081.06Z"/><path d="M1327.05,939.74c-.56-.36-6,8-15.45,18.44A207.43,207.43,0,0,1,1285,982.66c-27.71,22.13-54.93,35.26-66.12,40.58-12.13,5.76-26.35,12.43-47.76,24.48a209.33,209.33,0,0,0-18.15,11.61c-24.71,17.36-75.23,52.85-77.07,90.7-.93,19.31,11.88,17.47,9.55,35.85-4.48,35.39-55.43,70.92-87.56,87.11-14.58,7.34-25.08,11.33-24.82,12.15.49,1.54,36-7.71,72.35-26.15,20.13-10.22,48.83-24.79,73.49-52.63,15.54-17.54,24-34.19,31.6-49.1,2.18-4.28,3.93-8.07,5.23-11s2.21-5.19,2.5-5.91a1.54,1.54,0,0,0,.09-.22c.92-2.33,18.88-39.62,29.1-54.85,25-37.2,72.71-45.28,114.1-101.68C1316.15,963.59,1328,940.34,1327.05,939.74Z"/><path class="cls-1" d="M1702,392.27l-4.22,5a339.39,339.39,0,0,1,50.4,62.11c82,130.31,50.88,282.05,44.51,313.07-6.81,33.19-17.39,65.87-16,66.3,1.68.5,20-43.08,31.08-93.16,6.68-30.16,29.12-137.62-14.28-237.53-4.62-10.65-13.69-35.11-35.27-60.59C1739.84,425.7,1720.11,408.68,1702,392.27Z"/><path d="M506.58,547.86c-.08.43,13.94-1.49,40.39-.68l115,.91c7.62.06,13.77,6,13.77,13.24v176c0,7.36-6.28,13.3-14,13.24l-36.44-.26c-7.6-.06-13.74-5.93-13.78-13.19l-.48-114c0-7.31-6.26-13.21-13.91-13.19L502,608.61c-4.17-2.45-3.42-16-1.45-29.6C502.77,563.48,506.6,547.74,506.58,547.86Z"/><path d="M595.94,608.66c.08-.43-13.93,1.5-40.39.7l-115-.83c-7.62-.06-13.77-6-13.78-13.23l-.12-176c0-7.35,6.27-13.3,14-13.25l36.45.24c7.6.05,13.75,5.93,13.78,13.18l.57,114c0,7.3,6.26,13.19,13.92,13.17l95.18,1.32c4.17,2.45,3.43,16,1.47,29.6C599.74,593,595.92,608.77,595.94,608.66Z"/><path d="M624.51,608.51c-7.62,0-13.77-6-13.77-13.23l-.13-176c0-7.36,6.27-13.3,14-13.25l36.44.24c7.6.05,13.75,5.92,13.79,13.17l.56,114c.67,28,.32,40.8.32,68.81C675.7,618.65,642.72,615.46,624.51,608.51Z"/><path d="M1237.67,547.84c-.08.43,13.94-1.49,40.4-.68l115,.91c7.62.06,13.76,6,13.76,13.24v176c0,7.35-6.28,13.3-14,13.24l-36.45-.26c-7.6-.06-13.74-5.94-13.77-13.19l-.49-114c0-7.31-6.25-13.21-13.91-13.19l-95.18-1.38c-4.17-2.45-3.42-16-1.45-29.6C1233.87,563.45,1237.7,547.72,1237.67,547.84Z"/><path d="M1327,608.64c.08-.43-13.94,1.49-40.4.7l-115-.83c-7.62-.06-13.77-6-13.77-13.23l-.13-176c0-7.35,6.27-13.3,14-13.25l36.44.24c7.6,0,13.75,5.93,13.79,13.18l.56,114c0,7.31,6.27,13.2,13.92,13.18l95.18,1.32c4.17,2.45,3.44,16,1.48,29.6C1330.83,593,1327,608.75,1327,608.64Z"/><path d="M1355.61,608.49c-7.62,0-13.77-6-13.78-13.23l-.12-176c0-7.35,6.27-13.3,14-13.24l36.45.24c7.6,0,13.74,5.92,13.78,13.17l.57,114c.66,28,.31,40.79.31,68.81C1406.79,618.62,1373.82,615.43,1355.61,608.49Z"/><path d="M790.1,687.85c-61.05-71.18-52.33-178.53,19.82-239.09,60.65-51.12,147.47-52.69,209.71-8.65l1.19.79.79.78a8,8,0,0,1-.4,11.41L984,484.15a7.77,7.77,0,0,1-8.72.79C936.78,462.53,886,465.67,850,496a107.58,107.58,0,0,0-12.29,152.18c36.07,42.07,98.31,49.94,143.51,19.66a.38.38,0,0,0,.39-.39,8.07,8.07,0,0,1,10.31,2l29.73,35a7.55,7.55,0,0,1-.4,11c-.39,0-.39,0-.39.39h-.4v.4a186.14,186.14,0,0,1-29.73,16.91C922.9,763,840.45,746.83,790.1,687.85Z"/><path d="M1050.32,688c61-71.17,52.33-178.52-19.82-239.08-60.66-51.12-147.47-52.69-209.71-8.65l-1.19.79-.79.78a8,8,0,0,0,.39,11.41l37.27,31.06a7.77,7.77,0,0,0,8.72.79c38.45-22.41,89.19-19.27,125.27,11a107.58,107.58,0,0,1,12.29,152.18c-36.08,42.07-98.32,49.94-143.51,19.66a.38.38,0,0,1-.39-.39,8.07,8.07,0,0,0-10.31,2l-29.73,35a7.56,7.56,0,0,0,.39,11c.4,0,.4,0,.4.39h.4v.4a186.14,186.14,0,0,0,29.73,16.91C917.52,763.09,1000,747,1050.32,688Z"/><path class="cls-1" d="M217.56,295.45c-9.06,75.07-68.62,82.75-104.95,172.76-9.3,8.15-50.78,44.08-57.83,37.8-6.76-6,21.49-47.94,29.06-59,51.71-61.07,113.52-84.7,121.12-162.47C220,130.3-1.44,1.57,0,0S236.35,139.85,217.56,295.45Z"/><path class="cls-2" d="M212.7,286.94C227.77,132.7,6.3,4,7.74,2.42S244.09,142.25,225.3,297.86c-9.66,79.94-76.57,83.45-111.72,191.36-45.72,140.35,21.26,276.2,38.64,311.38,15.36,31.11,92.71,187.73,210,215,15.45,3.59,64,12.46,114.24,47.59,8.71,6.08,52.79,36.92,47.88,47.58-9.7,21.07-232.59,11.19-378.83-150.67C38.81,842-7.53,664.81,44.7,528.67,94.78,398.15,202.5,391.26,212.7,286.94Z"/><path class="cls-1" d="M322.74,1026.38C221.69,976.22,183,857.89,183.3,857.68c.16-.11,13.37,24.66,41.16,58.75,12.5,15.34,23.84,29.25,42,45.32,14.92,13.21,33.72,29.59,62.16,42,11.27,4.91,23.47,8.31,47.87,15.11,27,7.53,41.9,10.38,50.4,12.59,57.59,14.92,102.61,72.52,97.44,79.73-3.6,5-34.75-17.51-114.24-51.2C350.76,1034.81,346.77,1038.31,322.74,1026.38Z"/><path d="M446.22,1100.66c-20.38-17.68-38.7-39.12-91-125.33C293.7,874,222.46,743.59,230.22,738.94c6.54-3.92,44.6,96.36,153.67,189.68,70.43,60.26,113.44,70.15,176.7,140a480.34,480.34,0,0,1,78.09,117.68C599.94,1180.92,519.06,1163.89,446.22,1100.66Z"/><path class="cls-1" d="M537.11,967.35c.4-.43,8.26,7.12,20.08,15.71a227,227,0,0,0,45.22,25.24c37.37,16.23,64.81,17.43,137.23,36.81a234.46,234.46,0,0,1,59.9,24.34c11.1,6.49,24,14.16,35.49,27.87,10.75,12.78,15.09,24.61,19.16,35.51,6.09,16.27,9.13,24.41,7.13,31.89s-11.18,27.66-11.6,32.17c-.45,4.9.57,4.56,1,12.55,1.66,29-8.57,37.46-.58,46.91,4.94,5.83,15.84,10.35,18.43,15.65a14.41,14.41,0,0,1,1.57,5.29c0,1.33-.24,1.6-.31,4.06s.18,2.89-.24,3.25c-1.55,1.32-8.16-2.47-8.62-2.74-13.23-7.57-28.85-8.11-54.16-22.75-8.29-4.79-34.33-19.85-53.79-40.82-8.81-9.49-14-17.7-17.2-25.4-14.13-33.51-16-52.31-22.56-71.73-13.2-39.26-46.2-34.93-124.89-102C559.42,994.44,536.38,968.11,537.11,967.35Z"/><path class="cls-2" d="M622.46,1038.28c-10-7-21.53-14.24-36.87-28.28a265.32,265.32,0,0,1-23.2-24.07A301.15,301.15,0,0,0,599.45,1009c11.08,5.82,19.69,9.46,24.35,11.44,29.52,12.51,64.38,27,71.22,30.66,31.71,17.07,101.19,63.26,98.34,100.23-1.46,18.94-20.93,26.41-14.5,49.6,2.3,8.32,6.67,15,12.94,23.5,5.93,8.09,16.69,22.5,35.53,35.95a208.29,208.29,0,0,0,25.14,15.38c10.59,5.49,16.36,7.44,16.25,7.83-.29,1-37.55-7.4-77.19-29.5-27.56-15.38-42.65-29.79-48.31-35.48-7.21-7.26-11.4-11.48-15.39-18.27-10.41-17.7-4-28-10.43-48.92-2.81-9.11-7.46-19.72-15.68-32.81C675.81,1077.36,639.84,1050.46,622.46,1038.28Z"/><path d="M761.41,1080.67c24.26,18.22,61.38,46.12,60.69,73.86-.51,20.36-20.39,23.5-18.24,47.13,1.69,18.52,16.65,34.54,27,45.6a157.35,157.35,0,0,0,39.32,30.26,273.11,273.11,0,0,0,4.88-81.85c-1.2-12.94-3-31.88-11.16-55.24-11.28-32.15-28.78-56-44.28-67.62a113.22,113.22,0,0,0-13.72-8.8c-3.36-1.77-8.32-4.12-26.7-10.14-4.76-1.56-11.22-3.63-14.43-4.58C740,1042,590.11,1006.51,558.28,982.57c-6.85-5.15-11.07-8.69-11.07-8.69-14.42-12.09-21.58-21.27-22.82-20.34-.93.69,2.05,6.51,4.87,10.83,6.08,9.35,13.68,14.66,19.67,19.14,12.58,9.41,23.92,14.19,32,17.53,21.91,9.08,32.87,13.62,52.72,19.08C673.19,1031,723.57,1052.24,761.41,1080.67Z"/><path d="M515.41,939.35c.56-.36,6,8,15.45,18.44a208.12,208.12,0,0,0,26.63,24.48c27.72,22.13,54.93,35.27,66.13,40.58,12.13,5.76,26.34,12.43,47.75,24.48a211.72,211.72,0,0,1,18.16,11.61c24.71,17.36,75.23,52.85,77.06,90.7.94,19.31-11.87,17.47-9.55,35.85,4.49,35.39,55.43,70.92,87.57,87.11,14.57,7.34,25.08,11.33,24.82,12.15-.49,1.54-36-7.71-72.36-26.15-20.12-10.22-48.83-24.79-73.48-52.63-15.54-17.54-24-34.19-31.61-49.1-2.18-4.28-3.92-8.07-5.22-11s-2.21-5.19-2.51-5.91a1.89,1.89,0,0,0-.09-.22c-.92-2.33-18.88-39.62-29.1-54.85-25-37.2-72.7-45.28-114.09-101.68C526.31,963.2,514.49,940,515.41,939.35Z"/><path class="cls-1" d="M140.44,391.88l4.22,5A339.39,339.39,0,0,0,94.26,459c-82,130.31-50.88,282.06-44.52,313.07,6.81,33.19,17.39,65.88,16,66.3-1.67.5-20-43.08-31.08-93.16C28,715.05,5.51,607.59,48.9,507.68c4.63-10.64,13.7-35.11,35.28-60.59C102.62,425.31,122.35,408.29,140.44,391.88Z"/></g></g></svg>